<?xml version="1.0" standalone="no"?>
<!DOCTYPE svg PUBLIC "-//W3C//DTD SVG 20010904//EN"
 "http://www.w3.org/TR/2001/REC-SVG-20010904/DTD/svg10.dtd">
<svg version="1.0" xmlns="http://www.w3.org/2000/svg"
 width="200.000000pt" height="44.000000pt" viewBox="0 0 200.000000 44.000000"
 preserveAspectRatio="xMidYMid meet">

<g transform="translate(0.000000,44.000000) scale(0.100000,-0.100000)"
fill="#000000" stroke="none">
<path d="M177 372 c-8 -9 -20 -29 -26 -45 -6 -15 -23 -32 -38 -38 -42 -16 -63
-39 -63 -70 0 -31 17 -52 61 -74 16 -9 35 -28 43 -43 8 -15 24 -36 35 -46 30
-27 69 -12 97 38 12 21 39 48 60 60 50 28 65 67 38 97 -10 11 -31 27 -46 35
-15 8 -34 27 -43 43 -8 16 -22 36 -30 45 -22 21 -68 20 -88 -2z m119 -70 c41
-27 39 -92 -3 -142 -22 -26 -31 -30 -78 -30 -44 0 -57 4 -69 22 -29 41 -11
122 31 147 21 12 103 14 119 3z"/>
<path d="M221 232 c-6 -24 -10 -49 -8 -55 7 -19 28 44 25 72 -3 22 -6 20 -17
-17z"/>
<path d="M112 353 c-7 -2 -17 -14 -23 -25 -9 -17 -8 -18 9 -9 15 8 41 45 29
40 -1 0 -8 -3 -15 -6z"/>
<path d="M320 350 c0 -11 31 -42 36 -37 3 2 2 11 -2 20 -6 17 -34 31 -34 17z"/>
<path d="M527 282 c-35 -38 -10 -112 36 -112 25 0 57 36 57 65 0 29 -32 65
-58 65 -11 0 -26 -8 -35 -18z m67 -14 c21 -29 20 -41 -3 -69 -16 -21 -22 -22
-45 -11 -30 14 -36 60 -10 86 21 22 40 20 58 -6z"/>
<path d="M1315 235 c0 -37 4 -65 10 -65 6 0 9 19 8 42 -1 24 -2 53 -2 66 -1
12 -4 22 -8 22 -5 0 -8 -29 -8 -65z"/>
<path d="M1635 235 c0 -37 4 -65 10 -65 6 0 9 26 7 65 -5 84 -17 84 -17 0z"/>
<path d="M1068 268 c-8 -22 7 -91 20 -94 7 -1 8 0 2 3 -12 6 -13 70 -1 75 5 2
3 8 -4 15 -10 9 -15 9 -17 1z"/>
<path d="M647 239 c-8 -11 -13 -29 -10 -39 6 -22 41 -36 54 -23 6 6 1 9 -13 9
-19 -1 -23 4 -23 29 0 27 3 30 30 28 22 -2 26 0 15 7 -23 15 -38 12 -53 -11z"/>
<path d="M742 248 c-20 -20 -15 -66 9 -73 12 -4 25 -3 30 2 6 6 1 9 -13 9 -14
-1 -24 6 -26 17 -3 13 3 17 27 17 17 0 31 4 31 8 0 12 -22 32 -35 32 -6 0 -16
-5 -23 -12z m43 -8 c4 -6 -5 -10 -20 -10 -15 0 -24 4 -20 10 3 6 12 10 20 10
8 0 17 -4 20 -10z"/>
<path d="M853 249 c24 -14 21 -27 -5 -31 -30 -4 -32 -41 -3 -46 18 -3 19 -2 2
8 -19 12 -14 30 9 30 8 0 14 -9 14 -20 0 -11 4 -20 10 -20 5 0 7 14 4 33 -9
51 -12 57 -31 57 -17 -1 -17 -1 0 -11z"/>
<path d="M915 213 c0 -32 4 -43 15 -43 11 0 15 11 15 37 0 27 4 38 15 38 11 0
15 -11 15 -38 0 -22 5 -37 12 -37 9 0 11 10 7 33 -9 53 -11 55 -46 54 -32 -1
-33 -2 -33 -44z"/>
<path d="M1135 250 c-5 -9 -1 -10 13 -6 11 4 23 2 27 -4 4 -6 -6 -10 -24 -10
-23 0 -31 -5 -31 -18 0 -34 49 -58 65 -32 3 6 -1 7 -10 4 -16 -6 -45 11 -45
27 0 5 14 9 31 9 24 0 30 4 27 18 -4 20 -43 29 -53 12z"/>
<path d="M1230 246 c-25 -31 13 -97 40 -70 8 8 4 10 -12 10 -17 -1 -24 5 -26
23 -4 28 14 43 43 35 16 -4 17 -3 5 5 -21 15 -35 14 -50 -3z"/>
<path d="M1367 234 c13 -21 14 -30 5 -45 -10 -16 -9 -19 6 -19 15 0 18 6 14
33 -5 34 -18 57 -33 57 -5 0 -2 -12 8 -26z"/>
<path d="M1425 215 c0 -25 5 -45 10 -45 12 0 11 83 -1 87 -5 2 -9 -17 -9 -42z"/>
<path d="M1477 234 c13 -21 14 -30 5 -45 -10 -16 -9 -19 6 -19 15 0 18 6 14
33 -5 34 -18 57 -33 57 -5 0 -2 -12 8 -26z"/>
<path d="M1542 248 c-7 -7 -12 -25 -12 -40 0 -22 6 -29 27 -34 43 -11 69 38
37 70 -19 19 -36 20 -52 4z m47 -17 c14 -24 -8 -55 -32 -45 -20 7 -23 50 -4
57 21 9 26 7 36 -12z"/>
<path d="M1690 246 c-28 -35 11 -93 48 -70 35 22 22 84 -18 84 -10 0 -23 -7
-30 -14z m54 -19 c16 -25 -16 -56 -38 -37 -19 15 -20 32 -4 48 15 15 28 11 42
-11z"/>
<path d="M1792 248 c-28 -28 -1 -88 34 -74 11 4 14 1 12 -12 -2 -10 -12 -17
-26 -16 -12 0 -22 -3 -22 -8 0 -5 12 -8 28 -6 26 3 27 6 30 66 3 59 2 62 -21
62 -12 0 -28 -5 -35 -12z m43 -34 c0 -32 -21 -39 -38 -12 -8 12 -7 21 3 32 19
24 35 14 35 -20z"/>
<path d="M1889 215 c9 -25 18 -45 21 -45 3 0 12 17 20 38 8 20 16 40 18 45 2
4 -1 7 -6 7 -5 0 -12 -13 -15 -30 -10 -49 -32 -36 -30 18 1 6 -5 12 -12 12
-10 0 -9 -11 4 -45z"/>
<path d="M1896 145 c-3 -9 0 -15 9 -15 9 0 12 6 9 15 -4 8 -7 15 -9 15 -2 0
-5 -7 -9 -15z"/>
<path d="M86 106 c6 -15 34 -30 41 -22 5 5 -26 36 -37 36 -5 0 -7 -6 -4 -14z"/>
<path d="M330 105 c-7 -9 -10 -18 -7 -22 8 -7 37 15 37 28 0 14 -16 11 -30 -6z"/>
</g>
</svg>
